<?xml version="1.0" encoding="utf-8" standalone="no"?>
<!DOCTYPE svg PUBLIC "-//W3C//DTD SVG 1.1//EN"
  "http://www.w3.org/Graphics/SVG/1.1/DTD/svg11.dtd">
<svg xmlns:xlink="http://www.w3.org/1999/xlink" width="432pt" height="216pt" viewBox="0 0 432 216" xmlns="http://www.w3.org/2000/svg" version="1.1">
 <metadata>
  <rdf:RDF xmlns:dc="http://purl.org/dc/elements/1.1/" xmlns:cc="http://creativecommons.org/ns#" xmlns:rdf="http://www.w3.org/1999/02/22-rdf-syntax-ns#">
   <cc:Work>
    <dc:type rdf:resource="http://purl.org/dc/dcmitype/StillImage"/>
    <dc:date>2024-03-18T14:25:28.595322</dc:date>
    <dc:format>image/svg+xml</dc:format>
    <dc:creator>
     <cc:Agent>
      <dc:title>Matplotlib v3.7.2, https://matplotlib.org/</dc:title>
     </cc:Agent>
    </dc:creator>
   </cc:Work>
  </rdf:RDF>
 </metadata>
 <defs>
  <style type="text/css">*{stroke-linejoin: round; stroke-linecap: butt}</style>
 </defs>
 <g id="figure_1">
  <g id="patch_1">
   <path d="M 0 216 
L 432 216 
L 432 0 
L 0 0 
z
" style="fill: #ffffff"/>
  </g>
  <g id="axes_1">
   <g id="patch_2">
    <path d="M 50.87 112.695678 
L 409.565614 112.695678 
L 409.565614 10.8 
L 50.87 10.8 
z
" style="fill: #ffffff"/>
   </g>
   <g id="patch_3">
    <path d="M 67.174346 112.695678 
L 101.243129 112.695678 
L 101.243129 87.460726 
L 67.174346 87.460726 
z
" clip-path="url(#pcc45e79f30)" style="fill: #a9a9a9"/>
   </g>
   <g id="patch_4">
    <path d="M 115.844036 112.695678 
L 149.912819 112.695678 
L 149.912819 13.476434 
L 115.844036 13.476434 
z
" clip-path="url(#pcc45e79f30)" style="fill: #a9a9a9"/>
   </g>
   <g id="patch_5">
    <path d="M 164.513726 112.695678 
L 198.582508 112.695678 
L 198.582508 13.667608 
L 164.513726 13.667608 
z
" clip-path="url(#pcc45e79f30)" style="fill: #a9a9a9"/>
   </g>
   <g id="patch_6">
    <path d="M 213.183415 112.695678 
L 247.252198 112.695678 
L 247.252198 10.991174 
L 213.183415 10.991174 
z
" clip-path="url(#pcc45e79f30)" style="fill: #a9a9a9"/>
   </g>
   <g id="patch_7">
    <path d="M 261.853105 112.695678 
L 295.921888 112.695678 
L 295.921888 12.902913 
L 261.853105 12.902913 
z
" clip-path="url(#pcc45e79f30)" style="fill: #a9a9a9"/>
   </g>
   <g id="patch_8">
    <path d="M 310.522795 112.695678 
L 344.591578 112.695678 
L 344.591578 10.8 
L 310.522795 10.8 
z
" clip-path="url(#pcc45e79f30)" style="fill: #a9a9a9"/>
   </g>
   <g id="patch_9">
    <path d="M 359.192485 112.695678 
L 393.261268 112.695678 
L 393.261268 12.711739 
L 359.192485 12.711739 
z
" clip-path="url(#pcc45e79f30)" style="fill: #a9a9a9"/>
   </g>
   <g id="patch_10">
    <path d="M 67.174346 87.460726 
L 101.243129 87.460726 
L 101.243129 10.991174 
L 67.174346 10.991174 
z
" clip-path="url(#pcc45e79f30)" style="fill: #ff4500"/>
   </g>
   <g id="patch_11">
    <path d="M 115.844036 13.476434 
L 149.912819 13.476434 
L 149.912819 13.476434 
L 115.844036 13.476434 
z
" clip-path="url(#pcc45e79f30)" style="fill: #ff4500"/>
   </g>
   <g id="patch_12">
    <path d="M 164.513726 13.667608 
L 198.582508 13.667608 
L 198.582508 13.667608 
L 164.513726 13.667608 
z
" clip-path="url(#pcc45e79f30)" style="fill: #ff4500"/>
   </g>
   <g id="patch_13">
    <path d="M 213.183415 10.991174 
L 247.252198 10.991174 
L 247.252198 10.991174 
L 213.183415 10.991174 
z
" clip-path="url(#pcc45e79f30)" style="fill: #ff4500"/>
   </g>
   <g id="patch_14">
    <path d="M 261.853105 12.902913 
L 295.921888 12.902913 
L 295.921888 10.991174 
L 261.853105 10.991174 
z
" clip-path="url(#pcc45e79f30)" style="fill: #ff4500"/>
   </g>
   <g id="patch_15">
    <path d="M 310.522795 10.8 
L 344.591578 10.8 
L 344.591578 10.8 
L 310.522795 10.8 
z
" clip-path="url(#pcc45e79f30)" style="fill: #ff4500"/>
   </g>
   <g id="patch_16">
    <path d="M 359.192485 12.711739 
L 393.261268 12.711739 
L 393.261268 10.991174 
L 359.192485 10.991174 
z
" clip-path="url(#pcc45e79f30)" style="fill: #ff4500"/>
   </g>
   <g id="matplotlib.axis_1">
    <g id="xtick_1">
     <g id="line2d_1">
      <defs>
       <path id="ma5d9795b14" d="M 0 0 
L 0 3.5 
" style="stroke: #000000; stroke-width: 0.8"/>
      </defs>
      <g>
       <use xlink:href="#ma5d9795b14" x="84.208737" y="112.695678" style="stroke: #000000; stroke-width: 0.8"/>
      </g>
     </g>
     <g id="text_1">
      <!-- UDE -->
      <g transform="translate(78.615965 140.156475) rotate(-45) scale(0.1 -0.1)">
       <defs>
        <path id="DejaVuSans-55" d="M 556 4666 
L 1191 4666 
L 1191 1831 
Q 1191 1081 1462 751 
Q 1734 422 2344 422 
Q 2950 422 3222 751 
Q 3494 1081 3494 1831 
L 3494 4666 
L 4128 4666 
L 4128 1753 
Q 4128 841 3676 375 
Q 3225 -91 2344 -91 
Q 1459 -91 1007 375 
Q 556 841 556 1753 
L 556 4666 
z
" transform="scale(0.015625)"/>
        <path id="DejaVuSans-44" d="M 1259 4147 
L 1259 519 
L 2022 519 
Q 2988 519 3436 956 
Q 3884 1394 3884 2338 
Q 3884 3275 3436 3711 
Q 2988 4147 2022 4147 
L 1259 4147 
z
M 628 4666 
L 1925 4666 
Q 3281 4666 3915 4102 
Q 4550 3538 4550 2338 
Q 4550 1131 3912 565 
Q 3275 0 1925 0 
L 628 0 
L 628 4666 
z
" transform="scale(0.015625)"/>
        <path id="DejaVuSans-45" d="M 628 4666 
L 3578 4666 
L 3578 4134 
L 1259 4134 
L 1259 2753 
L 3481 2753 
L 3481 2222 
L 1259 2222 
L 1259 531 
L 3634 531 
L 3634 0 
L 628 0 
L 628 4666 
z
" transform="scale(0.015625)"/>
       </defs>
       <use xlink:href="#DejaVuSans-55"/>
       <use xlink:href="#DejaVuSans-44" x="73.193359"/>
       <use xlink:href="#DejaVuSans-45" x="150.195312"/>
      </g>
     </g>
    </g>
    <g id="xtick_2">
     <g id="line2d_2">
      <g>
       <use xlink:href="#ma5d9795b14" x="132.878427" y="112.695678" style="stroke: #000000; stroke-width: 0.8"/>
      </g>
     </g>
     <g id="text_2">
      <!-- nUDE -->
      <g transform="translate(121.085985 148.783178) rotate(-45) scale(0.1 -0.1)">
       <defs>
        <path id="DejaVuSans-6e" d="M 3513 2113 
L 3513 0 
L 2938 0 
L 2938 2094 
Q 2938 2591 2744 2837 
Q 2550 3084 2163 3084 
Q 1697 3084 1428 2787 
Q 1159 2491 1159 1978 
L 1159 0 
L 581 0 
L 581 3500 
L 1159 3500 
L 1159 2956 
Q 1366 3272 1645 3428 
Q 1925 3584 2291 3584 
Q 2894 3584 3203 3211 
Q 3513 2838 3513 2113 
z
" transform="scale(0.015625)"/>
       </defs>
       <use xlink:href="#DejaVuSans-6e"/>
       <use xlink:href="#DejaVuSans-55" x="63.378906"/>
       <use xlink:href="#DejaVuSans-44" x="136.572266"/>
       <use xlink:href="#DejaVuSans-45" x="213.574219"/>
      </g>
      <!-- $N(x)=x$ -->
      <g transform="translate(124.858621 160.846641) rotate(-45) scale(0.1 -0.1)">
       <defs>
        <path id="DejaVuSans-Oblique-4e" d="M 1081 4666 
L 1931 4666 
L 3219 666 
L 4000 4666 
L 4616 4666 
L 3706 0 
L 2853 0 
L 1569 4025 
L 788 0 
L 172 0 
L 1081 4666 
z
" transform="scale(0.015625)"/>
        <path id="DejaVuSans-28" d="M 1984 4856 
Q 1566 4138 1362 3434 
Q 1159 2731 1159 2009 
Q 1159 1288 1364 580 
Q 1569 -128 1984 -844 
L 1484 -844 
Q 1016 -109 783 600 
Q 550 1309 550 2009 
Q 550 2706 781 3412 
Q 1013 4119 1484 4856 
L 1984 4856 
z
" transform="scale(0.015625)"/>
        <path id="DejaVuSans-Oblique-78" d="M 3841 3500 
L 2234 1784 
L 3219 0 
L 2559 0 
L 1819 1388 
L 531 0 
L -166 0 
L 1556 1844 
L 641 3500 
L 1300 3500 
L 1972 2234 
L 3144 3500 
L 3841 3500 
z
" transform="scale(0.015625)"/>
        <path id="DejaVuSans-29" d="M 513 4856 
L 1013 4856 
Q 1481 4119 1714 3412 
Q 1947 2706 1947 2009 
Q 1947 1309 1714 600 
Q 1481 -109 1013 -844 
L 513 -844 
Q 928 -128 1133 580 
Q 1338 1288 1338 2009 
Q 1338 2731 1133 3434 
Q 928 4138 513 4856 
z
" transform="scale(0.015625)"/>
        <path id="DejaVuSans-3d" d="M 678 2906 
L 4684 2906 
L 4684 2381 
L 678 2381 
L 678 2906 
z
M 678 1631 
L 4684 1631 
L 4684 1100 
L 678 1100 
L 678 1631 
z
" transform="scale(0.015625)"/>
       </defs>
       <use xlink:href="#DejaVuSans-Oblique-4e" transform="translate(0 0.125)"/>
       <use xlink:href="#DejaVuSans-28" transform="translate(74.804688 0.125)"/>
       <use xlink:href="#DejaVuSans-Oblique-78" transform="translate(113.818359 0.125)"/>
       <use xlink:href="#DejaVuSans-29" transform="translate(172.998047 0.125)"/>
       <use xlink:href="#DejaVuSans-3d" transform="translate(231.494141 0.125)"/>
       <use xlink:href="#DejaVuSans-Oblique-78" transform="translate(334.765625 0.125)"/>
      </g>
     </g>
    </g>
    <g id="xtick_3">
     <g id="line2d_3">
      <g>
       <use xlink:href="#ma5d9795b14" x="181.548117" y="112.695678" style="stroke: #000000; stroke-width: 0.8"/>
      </g>
     </g>
     <g id="text_3">
      <!-- nUDE -->
      <g transform="translate(165.796651 150.798433) rotate(-45) scale(0.1 -0.1)">
       <use xlink:href="#DejaVuSans-6e"/>
       <use xlink:href="#DejaVuSans-55" x="63.378906"/>
       <use xlink:href="#DejaVuSans-44" x="136.572266"/>
       <use xlink:href="#DejaVuSans-45" x="213.574219"/>
      </g>
      <!-- $N(x)=x$ -->
      <g transform="translate(169.569286 162.861895) rotate(-45) scale(0.1 -0.1)">
       <use xlink:href="#DejaVuSans-Oblique-4e" transform="translate(0 0.125)"/>
       <use xlink:href="#DejaVuSans-28" transform="translate(74.804688 0.125)"/>
       <use xlink:href="#DejaVuSans-Oblique-78" transform="translate(113.818359 0.125)"/>
       <use xlink:href="#DejaVuSans-29" transform="translate(172.998047 0.125)"/>
       <use xlink:href="#DejaVuSans-3d" transform="translate(231.494141 0.125)"/>
       <use xlink:href="#DejaVuSans-Oblique-78" transform="translate(334.765625 0.125)"/>
      </g>
      <!-- $\lambda_o = 0.01$ -->
      <g transform="translate(175.472081 172.795199) rotate(-45) scale(0.1 -0.1)">
       <defs>
        <path id="DejaVuSans-Oblique-3bb" d="M 2350 4316 
L 3125 0 
L 2516 0 
L 2038 2588 
L 328 0 
L -281 0 
L 1903 3356 
L 1794 3975 
Q 1725 4369 1391 4369 
L 1091 4369 
L 1184 4863 
L 1550 4856 
Q 2253 4847 2350 4316 
z
" transform="scale(0.015625)"/>
        <path id="DejaVuSans-Oblique-6f" d="M 1625 -91 
Q 1009 -91 651 289 
Q 294 669 294 1325 
Q 294 1706 417 2101 
Q 541 2497 738 2766 
Q 1047 3184 1428 3384 
Q 1809 3584 2291 3584 
Q 2888 3584 3255 3212 
Q 3622 2841 3622 2241 
Q 3622 1825 3500 1412 
Q 3378 1000 3181 728 
Q 2875 309 2494 109 
Q 2113 -91 1625 -91 
z
M 891 1344 
Q 891 869 1089 633 
Q 1288 397 1691 397 
Q 2269 397 2648 901 
Q 3028 1406 3028 2181 
Q 3028 2634 2825 2865 
Q 2622 3097 2228 3097 
Q 1903 3097 1650 2945 
Q 1397 2794 1197 2484 
Q 1050 2253 970 1956 
Q 891 1659 891 1344 
z
" transform="scale(0.015625)"/>
        <path id="DejaVuSans-30" d="M 2034 4250 
Q 1547 4250 1301 3770 
Q 1056 3291 1056 2328 
Q 1056 1369 1301 889 
Q 1547 409 2034 409 
Q 2525 409 2770 889 
Q 3016 1369 3016 2328 
Q 3016 3291 2770 3770 
Q 2525 4250 2034 4250 
z
M 2034 4750 
Q 2819 4750 3233 4129 
Q 3647 3509 3647 2328 
Q 3647 1150 3233 529 
Q 2819 -91 2034 -91 
Q 1250 -91 836 529 
Q 422 1150 422 2328 
Q 422 3509 836 4129 
Q 1250 4750 2034 4750 
z
" transform="scale(0.015625)"/>
        <path id="DejaVuSans-2e" d="M 684 794 
L 1344 794 
L 1344 0 
L 684 0 
L 684 794 
z
" transform="scale(0.015625)"/>
        <path id="DejaVuSans-31" d="M 794 531 
L 1825 531 
L 1825 4091 
L 703 3866 
L 703 4441 
L 1819 4666 
L 2450 4666 
L 2450 531 
L 3481 531 
L 3481 0 
L 794 0 
L 794 531 
z
" transform="scale(0.015625)"/>
       </defs>
       <use xlink:href="#DejaVuSans-Oblique-3bb" transform="translate(0 0.015625)"/>
       <use xlink:href="#DejaVuSans-Oblique-6f" transform="translate(59.179688 -16.390625) scale(0.7)"/>
       <use xlink:href="#DejaVuSans-3d" transform="translate(124.223633 0.015625)"/>
       <use xlink:href="#DejaVuSans-30" transform="translate(227.495117 0.015625)"/>
       <use xlink:href="#DejaVuSans-2e" transform="translate(291.118164 0.015625)"/>
       <use xlink:href="#DejaVuSans-30" transform="translate(322.905273 0.015625)"/>
       <use xlink:href="#DejaVuSans-31" transform="translate(386.52832 0.015625)"/>
      </g>
     </g>
    </g>
    <g id="xtick_4">
     <g id="line2d_4">
      <g>
       <use xlink:href="#ma5d9795b14" x="230.217807" y="112.695678" style="stroke: #000000; stroke-width: 0.8"/>
      </g>
     </g>
     <g id="text_4">
      <!-- nUDE -->
      <g transform="translate(218.425365 159.601912) rotate(-45) scale(0.1 -0.1)">
       <use xlink:href="#DejaVuSans-6e"/>
       <use xlink:href="#DejaVuSans-55" x="63.378906"/>
       <use xlink:href="#DejaVuSans-44" x="136.572266"/>
       <use xlink:href="#DejaVuSans-45" x="213.574219"/>
      </g>
      <!-- $N(x)=\tanh(x)$ -->
      <g transform="translate(211.379267 182.484108) rotate(-45) scale(0.1 -0.1)">
       <defs>
        <path id="DejaVuSans-74" d="M 1172 4494 
L 1172 3500 
L 2356 3500 
L 2356 3053 
L 1172 3053 
L 1172 1153 
Q 1172 725 1289 603 
Q 1406 481 1766 481 
L 2356 481 
L 2356 0 
L 1766 0 
Q 1100 0 847 248 
Q 594 497 594 1153 
L 594 3053 
L 172 3053 
L 172 3500 
L 594 3500 
L 594 4494 
L 1172 4494 
z
" transform="scale(0.015625)"/>
        <path id="DejaVuSans-61" d="M 2194 1759 
Q 1497 1759 1228 1600 
Q 959 1441 959 1056 
Q 959 750 1161 570 
Q 1363 391 1709 391 
Q 2188 391 2477 730 
Q 2766 1069 2766 1631 
L 2766 1759 
L 2194 1759 
z
M 3341 1997 
L 3341 0 
L 2766 0 
L 2766 531 
Q 2569 213 2275 61 
Q 1981 -91 1556 -91 
Q 1019 -91 701 211 
Q 384 513 384 1019 
Q 384 1609 779 1909 
Q 1175 2209 1959 2209 
L 2766 2209 
L 2766 2266 
Q 2766 2663 2505 2880 
Q 2244 3097 1772 3097 
Q 1472 3097 1187 3025 
Q 903 2953 641 2809 
L 641 3341 
Q 956 3463 1253 3523 
Q 1550 3584 1831 3584 
Q 2591 3584 2966 3190 
Q 3341 2797 3341 1997 
z
" transform="scale(0.015625)"/>
        <path id="DejaVuSans-68" d="M 3513 2113 
L 3513 0 
L 2938 0 
L 2938 2094 
Q 2938 2591 2744 2837 
Q 2550 3084 2163 3084 
Q 1697 3084 1428 2787 
Q 1159 2491 1159 1978 
L 1159 0 
L 581 0 
L 581 4863 
L 1159 4863 
L 1159 2956 
Q 1366 3272 1645 3428 
Q 1925 3584 2291 3584 
Q 2894 3584 3203 3211 
Q 3513 2838 3513 2113 
z
" transform="scale(0.015625)"/>
       </defs>
       <use xlink:href="#DejaVuSans-Oblique-4e" transform="translate(0 0.015625)"/>
       <use xlink:href="#DejaVuSans-28" transform="translate(74.804688 0.015625)"/>
       <use xlink:href="#DejaVuSans-Oblique-78" transform="translate(113.818359 0.015625)"/>
       <use xlink:href="#DejaVuSans-29" transform="translate(172.998047 0.015625)"/>
       <use xlink:href="#DejaVuSans-3d" transform="translate(231.494141 0.015625)"/>
       <use xlink:href="#DejaVuSans-74" transform="translate(334.765625 0.015625)"/>
       <use xlink:href="#DejaVuSans-61" transform="translate(373.974609 0.015625)"/>
       <use xlink:href="#DejaVuSans-6e" transform="translate(435.253906 0.015625)"/>
       <use xlink:href="#DejaVuSans-68" transform="translate(498.632812 0.015625)"/>
       <use xlink:href="#DejaVuSans-28" transform="translate(562.011719 0.015625)"/>
       <use xlink:href="#DejaVuSans-Oblique-78" transform="translate(601.025391 0.015625)"/>
       <use xlink:href="#DejaVuSans-29" transform="translate(660.205078 0.015625)"/>
      </g>
     </g>
    </g>
    <g id="xtick_5">
     <g id="line2d_5">
      <g>
       <use xlink:href="#ma5d9795b14" x="278.887497" y="112.695678" style="stroke: #000000; stroke-width: 0.8"/>
      </g>
     </g>
     <g id="text_5">
      <!-- nUDE -->
      <g transform="translate(267.095055 164.09204) rotate(-45) scale(0.1 -0.1)">
       <use xlink:href="#DejaVuSans-6e"/>
       <use xlink:href="#DejaVuSans-55" x="63.378906"/>
       <use xlink:href="#DejaVuSans-44" x="136.572266"/>
       <use xlink:href="#DejaVuSans-45" x="213.574219"/>
      </g>
      <!-- $N(x)=\tanh(10x)$ -->
      <g transform="translate(255.558829 191.464364) rotate(-45) scale(0.1 -0.1)">
       <use xlink:href="#DejaVuSans-Oblique-4e" transform="translate(0 0.015625)"/>
       <use xlink:href="#DejaVuSans-28" transform="translate(74.804688 0.015625)"/>
       <use xlink:href="#DejaVuSans-Oblique-78" transform="translate(113.818359 0.015625)"/>
       <use xlink:href="#DejaVuSans-29" transform="translate(172.998047 0.015625)"/>
       <use xlink:href="#DejaVuSans-3d" transform="translate(231.494141 0.015625)"/>
       <use xlink:href="#DejaVuSans-74" transform="translate(334.765625 0.015625)"/>
       <use xlink:href="#DejaVuSans-61" transform="translate(373.974609 0.015625)"/>
       <use xlink:href="#DejaVuSans-6e" transform="translate(435.253906 0.015625)"/>
       <use xlink:href="#DejaVuSans-68" transform="translate(498.632812 0.015625)"/>
       <use xlink:href="#DejaVuSans-28" transform="translate(562.011719 0.015625)"/>
       <use xlink:href="#DejaVuSans-31" transform="translate(601.025391 0.015625)"/>
       <use xlink:href="#DejaVuSans-30" transform="translate(664.648438 0.015625)"/>
       <use xlink:href="#DejaVuSans-Oblique-78" transform="translate(728.271484 0.015625)"/>
       <use xlink:href="#DejaVuSans-29" transform="translate(787.451172 0.015625)"/>
      </g>
     </g>
    </g>
    <g id="xtick_6">
     <g id="line2d_6">
      <g>
       <use xlink:href="#ma5d9795b14" x="327.557186" y="112.695678" style="stroke: #000000; stroke-width: 0.8"/>
      </g>
     </g>
     <g id="text_6">
      <!-- nUDE -->
      <g transform="translate(311.80572 159.601912) rotate(-45) scale(0.1 -0.1)">
       <use xlink:href="#DejaVuSans-6e"/>
       <use xlink:href="#DejaVuSans-55" x="63.378906"/>
       <use xlink:href="#DejaVuSans-44" x="136.572266"/>
       <use xlink:href="#DejaVuSans-45" x="213.574219"/>
      </g>
      <!-- $N(x)=\tanh(x)$ -->
      <g transform="translate(304.759622 182.484108) rotate(-45) scale(0.1 -0.1)">
       <use xlink:href="#DejaVuSans-Oblique-4e" transform="translate(0 0.015625)"/>
       <use xlink:href="#DejaVuSans-28" transform="translate(74.804688 0.015625)"/>
       <use xlink:href="#DejaVuSans-Oblique-78" transform="translate(113.818359 0.015625)"/>
       <use xlink:href="#DejaVuSans-29" transform="translate(172.998047 0.015625)"/>
       <use xlink:href="#DejaVuSans-3d" transform="translate(231.494141 0.015625)"/>
       <use xlink:href="#DejaVuSans-74" transform="translate(334.765625 0.015625)"/>
       <use xlink:href="#DejaVuSans-61" transform="translate(373.974609 0.015625)"/>
       <use xlink:href="#DejaVuSans-6e" transform="translate(435.253906 0.015625)"/>
       <use xlink:href="#DejaVuSans-68" transform="translate(498.632812 0.015625)"/>
       <use xlink:href="#DejaVuSans-28" transform="translate(562.011719 0.015625)"/>
       <use xlink:href="#DejaVuSans-Oblique-78" transform="translate(601.025391 0.015625)"/>
       <use xlink:href="#DejaVuSans-29" transform="translate(660.205078 0.015625)"/>
      </g>
      <!-- $\lambda_o = 0.01$ -->
      <g transform="translate(321.48115 181.598678) rotate(-45) scale(0.1 -0.1)">
       <use xlink:href="#DejaVuSans-Oblique-3bb" transform="translate(0 0.015625)"/>
       <use xlink:href="#DejaVuSans-Oblique-6f" transform="translate(59.179688 -16.390625) scale(0.7)"/>
       <use xlink:href="#DejaVuSans-3d" transform="translate(124.223633 0.015625)"/>
       <use xlink:href="#DejaVuSans-30" transform="translate(227.495117 0.015625)"/>
       <use xlink:href="#DejaVuSans-2e" transform="translate(291.118164 0.015625)"/>
       <use xlink:href="#DejaVuSans-30" transform="translate(322.905273 0.015625)"/>
       <use xlink:href="#DejaVuSans-31" transform="translate(386.52832 0.015625)"/>
      </g>
     </g>
    </g>
    <g id="xtick_7">
     <g id="line2d_7">
      <g>
       <use xlink:href="#ma5d9795b14" x="376.226876" y="112.695678" style="stroke: #000000; stroke-width: 0.8"/>
      </g>
     </g>
     <g id="text_7">
      <!-- nUDE -->
      <g transform="translate(360.47541 164.09204) rotate(-45) scale(0.1 -0.1)">
       <use xlink:href="#DejaVuSans-6e"/>
       <use xlink:href="#DejaVuSans-55" x="63.378906"/>
       <use xlink:href="#DejaVuSans-44" x="136.572266"/>
       <use xlink:href="#DejaVuSans-45" x="213.574219"/>
      </g>
      <!-- $N(x)=\tanh(10x)$ -->
      <g transform="translate(348.939184 191.464364) rotate(-45) scale(0.1 -0.1)">
       <use xlink:href="#DejaVuSans-Oblique-4e" transform="translate(0 0.015625)"/>
       <use xlink:href="#DejaVuSans-28" transform="translate(74.804688 0.015625)"/>
       <use xlink:href="#DejaVuSans-Oblique-78" transform="translate(113.818359 0.015625)"/>
       <use xlink:href="#DejaVuSans-29" transform="translate(172.998047 0.015625)"/>
       <use xlink:href="#DejaVuSans-3d" transform="translate(231.494141 0.015625)"/>
       <use xlink:href="#DejaVuSans-74" transform="translate(334.765625 0.015625)"/>
       <use xlink:href="#DejaVuSans-61" transform="translate(373.974609 0.015625)"/>
       <use xlink:href="#DejaVuSans-6e" transform="translate(435.253906 0.015625)"/>
       <use xlink:href="#DejaVuSans-68" transform="translate(498.632812 0.015625)"/>
       <use xlink:href="#DejaVuSans-28" transform="translate(562.011719 0.015625)"/>
       <use xlink:href="#DejaVuSans-31" transform="translate(601.025391 0.015625)"/>
       <use xlink:href="#DejaVuSans-30" transform="translate(664.648438 0.015625)"/>
       <use xlink:href="#DejaVuSans-Oblique-78" transform="translate(728.271484 0.015625)"/>
       <use xlink:href="#DejaVuSans-29" transform="translate(787.451172 0.015625)"/>
      </g>
      <!-- $\lambda_o = 0.01$ -->
      <g transform="translate(370.15084 186.088806) rotate(-45) scale(0.1 -0.1)">
       <use xlink:href="#DejaVuSans-Oblique-3bb" transform="translate(0 0.015625)"/>
       <use xlink:href="#DejaVuSans-Oblique-6f" transform="translate(59.179688 -16.390625) scale(0.7)"/>
       <use xlink:href="#DejaVuSans-3d" transform="translate(124.223633 0.015625)"/>
       <use xlink:href="#DejaVuSans-30" transform="translate(227.495117 0.015625)"/>
       <use xlink:href="#DejaVuSans-2e" transform="translate(291.118164 0.015625)"/>
       <use xlink:href="#DejaVuSans-30" transform="translate(322.905273 0.015625)"/>
       <use xlink:href="#DejaVuSans-31" transform="translate(386.52832 0.015625)"/>
      </g>
     </g>
    </g>
   </g>
   <g id="matplotlib.axis_2">
    <g id="ytick_1">
     <g id="line2d_8">
      <defs>
       <path id="mea9827cde7" d="M 0 0 
L -3.5 0 
" style="stroke: #000000; stroke-width: 0.8"/>
      </defs>
      <g>
       <use xlink:href="#mea9827cde7" x="50.87" y="112.695678" style="stroke: #000000; stroke-width: 0.8"/>
      </g>
     </g>
     <g id="text_8">
      <!-- 0 -->
      <g transform="translate(37.5075 116.494897) scale(0.1 -0.1)">
       <use xlink:href="#DejaVuSans-30"/>
      </g>
     </g>
    </g>
    <g id="ytick_2">
     <g id="line2d_9">
      <g>
       <use xlink:href="#mea9827cde7" x="50.87" y="74.460902" style="stroke: #000000; stroke-width: 0.8"/>
      </g>
     </g>
     <g id="text_9">
      <!-- 200 -->
      <g transform="translate(24.7825 78.260121) scale(0.1 -0.1)">
       <defs>
        <path id="DejaVuSans-32" d="M 1228 531 
L 3431 531 
L 3431 0 
L 469 0 
L 469 531 
Q 828 903 1448 1529 
Q 2069 2156 2228 2338 
Q 2531 2678 2651 2914 
Q 2772 3150 2772 3378 
Q 2772 3750 2511 3984 
Q 2250 4219 1831 4219 
Q 1534 4219 1204 4116 
Q 875 4013 500 3803 
L 500 4441 
Q 881 4594 1212 4672 
Q 1544 4750 1819 4750 
Q 2544 4750 2975 4387 
Q 3406 4025 3406 3419 
Q 3406 3131 3298 2873 
Q 3191 2616 2906 2266 
Q 2828 2175 2409 1742 
Q 1991 1309 1228 531 
z
" transform="scale(0.015625)"/>
       </defs>
       <use xlink:href="#DejaVuSans-32"/>
       <use xlink:href="#DejaVuSans-30" x="63.623047"/>
       <use xlink:href="#DejaVuSans-30" x="127.246094"/>
      </g>
     </g>
    </g>
    <g id="ytick_3">
     <g id="line2d_10">
      <g>
       <use xlink:href="#mea9827cde7" x="50.87" y="36.226126" style="stroke: #000000; stroke-width: 0.8"/>
      </g>
     </g>
     <g id="text_10">
      <!-- 400 -->
      <g transform="translate(24.7825 40.025345) scale(0.1 -0.1)">
       <defs>
        <path id="DejaVuSans-34" d="M 2419 4116 
L 825 1625 
L 2419 1625 
L 2419 4116 
z
M 2253 4666 
L 3047 4666 
L 3047 1625 
L 3713 1625 
L 3713 1100 
L 3047 1100 
L 3047 0 
L 2419 0 
L 2419 1100 
L 313 1100 
L 313 1709 
L 2253 4666 
z
" transform="scale(0.015625)"/>
       </defs>
       <use xlink:href="#DejaVuSans-34"/>
       <use xlink:href="#DejaVuSans-30" x="63.623047"/>
       <use xlink:href="#DejaVuSans-30" x="127.246094"/>
      </g>
     </g>
    </g>
    <g id="text_11">
     <!-- Optimised models [#] -->
     <g transform="translate(18.702813 116.765808) rotate(-90) scale(0.1 -0.1)">
      <defs>
       <path id="DejaVuSans-4f" d="M 2522 4238 
Q 1834 4238 1429 3725 
Q 1025 3213 1025 2328 
Q 1025 1447 1429 934 
Q 1834 422 2522 422 
Q 3209 422 3611 934 
Q 4013 1447 4013 2328 
Q 4013 3213 3611 3725 
Q 3209 4238 2522 4238 
z
M 2522 4750 
Q 3503 4750 4090 4092 
Q 4678 3434 4678 2328 
Q 4678 1225 4090 567 
Q 3503 -91 2522 -91 
Q 1538 -91 948 565 
Q 359 1222 359 2328 
Q 359 3434 948 4092 
Q 1538 4750 2522 4750 
z
" transform="scale(0.015625)"/>
       <path id="DejaVuSans-70" d="M 1159 525 
L 1159 -1331 
L 581 -1331 
L 581 3500 
L 1159 3500 
L 1159 2969 
Q 1341 3281 1617 3432 
Q 1894 3584 2278 3584 
Q 2916 3584 3314 3078 
Q 3713 2572 3713 1747 
Q 3713 922 3314 415 
Q 2916 -91 2278 -91 
Q 1894 -91 1617 61 
Q 1341 213 1159 525 
z
M 3116 1747 
Q 3116 2381 2855 2742 
Q 2594 3103 2138 3103 
Q 1681 3103 1420 2742 
Q 1159 2381 1159 1747 
Q 1159 1113 1420 752 
Q 1681 391 2138 391 
Q 2594 391 2855 752 
Q 3116 1113 3116 1747 
z
" transform="scale(0.015625)"/>
       <path id="DejaVuSans-69" d="M 603 3500 
L 1178 3500 
L 1178 0 
L 603 0 
L 603 3500 
z
M 603 4863 
L 1178 4863 
L 1178 4134 
L 603 4134 
L 603 4863 
z
" transform="scale(0.015625)"/>
       <path id="DejaVuSans-6d" d="M 3328 2828 
Q 3544 3216 3844 3400 
Q 4144 3584 4550 3584 
Q 5097 3584 5394 3201 
Q 5691 2819 5691 2113 
L 5691 0 
L 5113 0 
L 5113 2094 
Q 5113 2597 4934 2840 
Q 4756 3084 4391 3084 
Q 3944 3084 3684 2787 
Q 3425 2491 3425 1978 
L 3425 0 
L 2847 0 
L 2847 2094 
Q 2847 2600 2669 2842 
Q 2491 3084 2119 3084 
Q 1678 3084 1418 2786 
Q 1159 2488 1159 1978 
L 1159 0 
L 581 0 
L 581 3500 
L 1159 3500 
L 1159 2956 
Q 1356 3278 1631 3431 
Q 1906 3584 2284 3584 
Q 2666 3584 2933 3390 
Q 3200 3197 3328 2828 
z
" transform="scale(0.015625)"/>
       <path id="DejaVuSans-73" d="M 2834 3397 
L 2834 2853 
Q 2591 2978 2328 3040 
Q 2066 3103 1784 3103 
Q 1356 3103 1142 2972 
Q 928 2841 928 2578 
Q 928 2378 1081 2264 
Q 1234 2150 1697 2047 
L 1894 2003 
Q 2506 1872 2764 1633 
Q 3022 1394 3022 966 
Q 3022 478 2636 193 
Q 2250 -91 1575 -91 
Q 1294 -91 989 -36 
Q 684 19 347 128 
L 347 722 
Q 666 556 975 473 
Q 1284 391 1588 391 
Q 1994 391 2212 530 
Q 2431 669 2431 922 
Q 2431 1156 2273 1281 
Q 2116 1406 1581 1522 
L 1381 1569 
Q 847 1681 609 1914 
Q 372 2147 372 2553 
Q 372 3047 722 3315 
Q 1072 3584 1716 3584 
Q 2034 3584 2315 3537 
Q 2597 3491 2834 3397 
z
" transform="scale(0.015625)"/>
       <path id="DejaVuSans-65" d="M 3597 1894 
L 3597 1613 
L 953 1613 
Q 991 1019 1311 708 
Q 1631 397 2203 397 
Q 2534 397 2845 478 
Q 3156 559 3463 722 
L 3463 178 
Q 3153 47 2828 -22 
Q 2503 -91 2169 -91 
Q 1331 -91 842 396 
Q 353 884 353 1716 
Q 353 2575 817 3079 
Q 1281 3584 2069 3584 
Q 2775 3584 3186 3129 
Q 3597 2675 3597 1894 
z
M 3022 2063 
Q 3016 2534 2758 2815 
Q 2500 3097 2075 3097 
Q 1594 3097 1305 2825 
Q 1016 2553 972 2059 
L 3022 2063 
z
" transform="scale(0.015625)"/>
       <path id="DejaVuSans-64" d="M 2906 2969 
L 2906 4863 
L 3481 4863 
L 3481 0 
L 2906 0 
L 2906 525 
Q 2725 213 2448 61 
Q 2172 -91 1784 -91 
Q 1150 -91 751 415 
Q 353 922 353 1747 
Q 353 2572 751 3078 
Q 1150 3584 1784 3584 
Q 2172 3584 2448 3432 
Q 2725 3281 2906 2969 
z
M 947 1747 
Q 947 1113 1208 752 
Q 1469 391 1925 391 
Q 2381 391 2643 752 
Q 2906 1113 2906 1747 
Q 2906 2381 2643 2742 
Q 2381 3103 1925 3103 
Q 1469 3103 1208 2742 
Q 947 2381 947 1747 
z
" transform="scale(0.015625)"/>
       <path id="DejaVuSans-20" transform="scale(0.015625)"/>
       <path id="DejaVuSans-6f" d="M 1959 3097 
Q 1497 3097 1228 2736 
Q 959 2375 959 1747 
Q 959 1119 1226 758 
Q 1494 397 1959 397 
Q 2419 397 2687 759 
Q 2956 1122 2956 1747 
Q 2956 2369 2687 2733 
Q 2419 3097 1959 3097 
z
M 1959 3584 
Q 2709 3584 3137 3096 
Q 3566 2609 3566 1747 
Q 3566 888 3137 398 
Q 2709 -91 1959 -91 
Q 1206 -91 779 398 
Q 353 888 353 1747 
Q 353 2609 779 3096 
Q 1206 3584 1959 3584 
z
" transform="scale(0.015625)"/>
       <path id="DejaVuSans-6c" d="M 603 4863 
L 1178 4863 
L 1178 0 
L 603 0 
L 603 4863 
z
" transform="scale(0.015625)"/>
       <path id="DejaVuSans-5b" d="M 550 4863 
L 1875 4863 
L 1875 4416 
L 1125 4416 
L 1125 -397 
L 1875 -397 
L 1875 -844 
L 550 -844 
L 550 4863 
z
" transform="scale(0.015625)"/>
       <path id="DejaVuSans-23" d="M 3272 2816 
L 2363 2816 
L 2100 1772 
L 3016 1772 
L 3272 2816 
z
M 2803 4594 
L 2478 3297 
L 3391 3297 
L 3719 4594 
L 4219 4594 
L 3897 3297 
L 4872 3297 
L 4872 2816 
L 3775 2816 
L 3519 1772 
L 4513 1772 
L 4513 1294 
L 3397 1294 
L 3072 0 
L 2572 0 
L 2894 1294 
L 1978 1294 
L 1656 0 
L 1153 0 
L 1478 1294 
L 494 1294 
L 494 1772 
L 1594 1772 
L 1856 2816 
L 850 2816 
L 850 3297 
L 1978 3297 
L 2297 4594 
L 2803 4594 
z
" transform="scale(0.015625)"/>
       <path id="DejaVuSans-5d" d="M 1947 4863 
L 1947 -844 
L 622 -844 
L 622 -397 
L 1369 -397 
L 1369 4416 
L 622 4416 
L 622 4863 
L 1947 4863 
z
" transform="scale(0.015625)"/>
      </defs>
      <use xlink:href="#DejaVuSans-4f"/>
      <use xlink:href="#DejaVuSans-70" x="78.710938"/>
      <use xlink:href="#DejaVuSans-74" x="142.1875"/>
      <use xlink:href="#DejaVuSans-69" x="181.396484"/>
      <use xlink:href="#DejaVuSans-6d" x="209.179688"/>
      <use xlink:href="#DejaVuSans-69" x="306.591797"/>
      <use xlink:href="#DejaVuSans-73" x="334.375"/>
      <use xlink:href="#DejaVuSans-65" x="386.474609"/>
      <use xlink:href="#DejaVuSans-64" x="447.998047"/>
      <use xlink:href="#DejaVuSans-20" x="511.474609"/>
      <use xlink:href="#DejaVuSans-6d" x="543.261719"/>
      <use xlink:href="#DejaVuSans-6f" x="640.673828"/>
      <use xlink:href="#DejaVuSans-64" x="701.855469"/>
      <use xlink:href="#DejaVuSans-65" x="765.332031"/>
      <use xlink:href="#DejaVuSans-6c" x="826.855469"/>
      <use xlink:href="#DejaVuSans-73" x="854.638672"/>
      <use xlink:href="#DejaVuSans-20" x="906.738281"/>
      <use xlink:href="#DejaVuSans-5b" x="938.525391"/>
      <use xlink:href="#DejaVuSans-23" x="977.539062"/>
      <use xlink:href="#DejaVuSans-5d" x="1061.328125"/>
     </g>
    </g>
   </g>
   <g id="patch_17">
    <path d="M 50.87 112.695678 
L 50.87 10.8 
" style="fill: none; stroke: #000000; stroke-width: 0.8; stroke-linejoin: miter; stroke-linecap: square"/>
   </g>
   <g id="patch_18">
    <path d="M 409.565614 112.695678 
L 409.565614 10.8 
" style="fill: none; stroke: #000000; stroke-width: 0.8; stroke-linejoin: miter; stroke-linecap: square"/>
   </g>
   <g id="patch_19">
    <path d="M 50.87 112.695678 
L 409.565614 112.695678 
" style="fill: none; stroke: #000000; stroke-width: 0.8; stroke-linejoin: miter; stroke-linecap: square"/>
   </g>
   <g id="patch_20">
    <path d="M 50.87 10.8 
L 409.565614 10.8 
" style="fill: none; stroke: #000000; stroke-width: 0.8; stroke-linejoin: miter; stroke-linecap: square"/>
   </g>
   <g id="legend_1">
    <g id="patch_21">
     <path d="M 303.282801 107.695678 
L 402.565614 107.695678 
Q 404.565614 107.695678 404.565614 105.695678 
L 404.565614 77.339428 
Q 404.565614 75.339428 402.565614 75.339428 
L 303.282801 75.339428 
Q 301.282801 75.339428 301.282801 77.339428 
L 301.282801 105.695678 
Q 301.282801 107.695678 303.282801 107.695678 
z
" style="fill: #ffffff; opacity: 0.8; stroke: #cccccc; stroke-linejoin: miter"/>
    </g>
    <g id="patch_22">
     <path d="M 305.282801 86.937865 
L 325.282801 86.937865 
L 325.282801 79.937865 
L 305.282801 79.937865 
z
" style="fill: #ff4500"/>
    </g>
    <g id="text_12">
     <!-- Negative -->
     <g transform="translate(333.282801 86.937865) scale(0.1 -0.1)">
      <defs>
       <path id="DejaVuSans-4e" d="M 628 4666 
L 1478 4666 
L 3547 763 
L 3547 4666 
L 4159 4666 
L 4159 0 
L 3309 0 
L 1241 3903 
L 1241 0 
L 628 0 
L 628 4666 
z
" transform="scale(0.015625)"/>
       <path id="DejaVuSans-67" d="M 2906 1791 
Q 2906 2416 2648 2759 
Q 2391 3103 1925 3103 
Q 1463 3103 1205 2759 
Q 947 2416 947 1791 
Q 947 1169 1205 825 
Q 1463 481 1925 481 
Q 2391 481 2648 825 
Q 2906 1169 2906 1791 
z
M 3481 434 
Q 3481 -459 3084 -895 
Q 2688 -1331 1869 -1331 
Q 1566 -1331 1297 -1286 
Q 1028 -1241 775 -1147 
L 775 -588 
Q 1028 -725 1275 -790 
Q 1522 -856 1778 -856 
Q 2344 -856 2625 -561 
Q 2906 -266 2906 331 
L 2906 616 
Q 2728 306 2450 153 
Q 2172 0 1784 0 
Q 1141 0 747 490 
Q 353 981 353 1791 
Q 353 2603 747 3093 
Q 1141 3584 1784 3584 
Q 2172 3584 2450 3431 
Q 2728 3278 2906 2969 
L 2906 3500 
L 3481 3500 
L 3481 434 
z
" transform="scale(0.015625)"/>
       <path id="DejaVuSans-76" d="M 191 3500 
L 800 3500 
L 1894 563 
L 2988 3500 
L 3597 3500 
L 2284 0 
L 1503 0 
L 191 3500 
z
" transform="scale(0.015625)"/>
      </defs>
      <use xlink:href="#DejaVuSans-4e"/>
      <use xlink:href="#DejaVuSans-65" x="74.804688"/>
      <use xlink:href="#DejaVuSans-67" x="136.328125"/>
      <use xlink:href="#DejaVuSans-61" x="199.804688"/>
      <use xlink:href="#DejaVuSans-74" x="261.083984"/>
      <use xlink:href="#DejaVuSans-69" x="300.292969"/>
      <use xlink:href="#DejaVuSans-76" x="328.076172"/>
      <use xlink:href="#DejaVuSans-65" x="387.255859"/>
     </g>
    </g>
    <g id="patch_23">
     <path d="M 305.282801 101.61599 
L 325.282801 101.61599 
L 325.282801 94.61599 
L 305.282801 94.61599 
z
" style="fill: #a9a9a9"/>
    </g>
    <g id="text_13">
     <!-- Non-negative -->
     <g transform="translate(333.282801 101.61599) scale(0.1 -0.1)">
      <defs>
       <path id="DejaVuSans-2d" d="M 313 2009 
L 1997 2009 
L 1997 1497 
L 313 1497 
L 313 2009 
z
" transform="scale(0.015625)"/>
      </defs>
      <use xlink:href="#DejaVuSans-4e"/>
      <use xlink:href="#DejaVuSans-6f" x="74.804688"/>
      <use xlink:href="#DejaVuSans-6e" x="135.986328"/>
      <use xlink:href="#DejaVuSans-2d" x="199.365234"/>
      <use xlink:href="#DejaVuSans-6e" x="235.449219"/>
      <use xlink:href="#DejaVuSans-65" x="298.828125"/>
      <use xlink:href="#DejaVuSans-67" x="360.351562"/>
      <use xlink:href="#DejaVuSans-61" x="423.828125"/>
      <use xlink:href="#DejaVuSans-74" x="485.107422"/>
      <use xlink:href="#DejaVuSans-69" x="524.316406"/>
      <use xlink:href="#DejaVuSans-76" x="552.099609"/>
      <use xlink:href="#DejaVuSans-65" x="611.279297"/>
     </g>
    </g>
   </g>
  </g>
 </g>
 <defs>
  <clipPath id="pcc45e79f30">
   <rect x="50.87" y="10.8" width="358.695614" height="101.895678"/>
  </clipPath>
 </defs>
</svg>
